<svg width="250" height="250" viewBox="0 0 250 250" fill="none" xmlns="http://www.w3.org/2000/svg">
<g filter="url(#filter0_i_76_10)">
<rect width="250" height="250" rx="20" fill="#FF9800"/>
<g filter="url(#filter1_d_76_10)">
<mask id="path-2-outside-1_76_10" maskUnits="userSpaceOnUse" x="38" y="45" width="171" height="166" fill="black">
<rect fill="white" x="38" y="45" width="171" height="166"/>
<path d="M130.5 205.5C112.333 205.5 96.25 204.667 82.25 203C68.25 201.333 58.1667 199.667 52 198V193L47 166.25C49.3333 168.917 53.75 171.75 60.25 174.75C66.9167 177.75 75.75 180.333 86.75 182.5C97.75 184.5 110.833 185.5 126 185.5C139.667 185.5 150 184.583 157 182.75C164.167 180.75 169 178.083 171.5 174.75C174.167 171.25 175.5 167.25 175.5 162.75C175.5 157.417 173.333 153.167 169 150C164.667 146.833 158.167 144.333 149.5 142.5C141 140.5 130.417 138.75 117.75 137.25C101.25 135.083 88 132.25 78 128.75C68 125.083 60.75 120.25 56.25 114.25C51.75 108.25 49.5 100.667 49.5 91.5C49.5 83.6667 51.8333 76.6667 56.5 70.5C61.3333 64.3333 68.5833 59.5 78.25 56C87.9167 52.3333 100.25 50.5 115.25 50.5C132.583 50.5 147.667 51.3333 160.5 53C173.333 54.6667 182.417 56.3333 187.75 58V63L195.25 85.5C191.75 83.3333 186.333 81.0833 179 78.75C171.833 76.4167 163.167 74.5 153 73C142.833 71.3333 131.5 70.5 119 70.5C108.667 70.5 100.417 71.25 94.25 72.75C88.25 74.25 83.9167 76.5 81.25 79.5C78.75 82.3333 77.5 85.8333 77.5 90C77.5 95.5 79.5 99.9167 83.5 103.25C87.6667 106.583 93.6667 109.167 101.5 111C109.5 112.833 119.167 114.417 130.5 115.75C148.5 117.75 162.833 120.583 173.5 124.25C184.167 127.917 191.833 132.833 196.5 139C201.167 145.167 203.5 153.167 203.5 163C203.5 169.5 201.917 175.417 198.75 180.75C195.75 185.917 191.167 190.417 185 194.25C178.833 197.917 171.167 200.75 162 202.75C153 204.583 142.5 205.5 130.5 205.5Z"/>
</mask>
<path d="M130.5 205.5C112.333 205.5 96.25 204.667 82.25 203C68.25 201.333 58.1667 199.667 52 198V193L47 166.25C49.3333 168.917 53.75 171.75 60.25 174.75C66.9167 177.75 75.75 180.333 86.75 182.5C97.75 184.5 110.833 185.5 126 185.5C139.667 185.5 150 184.583 157 182.75C164.167 180.75 169 178.083 171.5 174.75C174.167 171.25 175.5 167.25 175.5 162.75C175.5 157.417 173.333 153.167 169 150C164.667 146.833 158.167 144.333 149.5 142.5C141 140.5 130.417 138.75 117.75 137.25C101.25 135.083 88 132.25 78 128.75C68 125.083 60.75 120.25 56.25 114.25C51.75 108.25 49.5 100.667 49.5 91.5C49.5 83.6667 51.8333 76.6667 56.5 70.5C61.3333 64.3333 68.5833 59.5 78.25 56C87.9167 52.3333 100.25 50.5 115.25 50.5C132.583 50.5 147.667 51.3333 160.5 53C173.333 54.6667 182.417 56.3333 187.75 58V63L195.25 85.5C191.75 83.3333 186.333 81.0833 179 78.75C171.833 76.4167 163.167 74.5 153 73C142.833 71.3333 131.5 70.5 119 70.5C108.667 70.5 100.417 71.25 94.25 72.75C88.25 74.25 83.9167 76.5 81.25 79.5C78.75 82.3333 77.5 85.8333 77.5 90C77.5 95.5 79.5 99.9167 83.5 103.25C87.6667 106.583 93.6667 109.167 101.5 111C109.5 112.833 119.167 114.417 130.5 115.75C148.5 117.75 162.833 120.583 173.5 124.25C184.167 127.917 191.833 132.833 196.5 139C201.167 145.167 203.5 153.167 203.5 163C203.5 169.5 201.917 175.417 198.75 180.75C195.75 185.917 191.167 190.417 185 194.25C178.833 197.917 171.167 200.75 162 202.75C153 204.583 142.5 205.5 130.5 205.5Z" fill="white"/>
<path d="M52 198H47V201.828L50.6955 202.827L52 198ZM52 193H57V192.537L56.9149 192.081L52 193ZM47 166.25L50.7629 162.957L38.7269 149.202L42.0851 167.169L47 166.25ZM60.25 174.75L58.1547 179.29L58.1764 179.3L58.1982 179.31L60.25 174.75ZM86.75 182.5L85.7837 187.406L85.8196 187.413L85.8556 187.419L86.75 182.5ZM157 182.75L158.267 187.587L158.305 187.577L158.344 187.566L157 182.75ZM171.5 174.75L167.523 171.72L167.511 171.735L167.5 171.75L171.5 174.75ZM169 150L166.05 154.037V154.037L169 150ZM149.5 142.5L148.355 147.367L148.41 147.38L148.465 147.392L149.5 142.5ZM117.75 137.25L117.099 142.207L117.13 142.212L117.162 142.215L117.75 137.25ZM78 128.75L76.2787 133.444L76.3134 133.457L76.3482 133.469L78 128.75ZM56.25 114.25L60.25 111.25V111.25L56.25 114.25ZM56.5 70.5L52.5647 67.4156L52.5386 67.449L52.513 67.4828L56.5 70.5ZM78.25 56L79.9522 60.7013L79.9878 60.6884L80.0233 60.675L78.25 56ZM160.5 53L159.856 57.9584L160.5 53ZM187.75 58H192.75V54.324L189.241 53.2276L187.75 58ZM187.75 63H182.75V63.8114L183.007 64.5811L187.75 63ZM195.25 85.5L192.618 89.7513L204.361 97.0204L199.993 83.9189L195.25 85.5ZM179 78.75L177.452 83.5044L177.468 83.5095L177.484 83.5146L179 78.75ZM153 73L152.191 77.9341L152.231 77.9406L152.27 77.9464L153 73ZM94.25 72.75L93.0682 67.8917L93.0528 67.8954L93.0373 67.8993L94.25 72.75ZM81.25 79.5L77.513 76.1782L77.5069 76.185L77.5008 76.1919L81.25 79.5ZM83.5 103.25L80.2991 107.091L80.3375 107.123L80.3765 107.154L83.5 103.25ZM101.5 111L100.361 115.868L100.372 115.871L100.383 115.874L101.5 111ZM130.5 115.75L129.916 120.716L129.932 120.718L129.948 120.719L130.5 115.75ZM173.5 124.25L175.125 119.522L173.5 124.25ZM198.75 180.75L194.451 178.197L194.438 178.218L194.426 178.239L198.75 180.75ZM185 194.25L187.555 198.548L187.598 198.522L187.64 198.496L185 194.25ZM162 202.75L162.998 207.649L163.032 207.642L163.066 207.635L162 202.75ZM130.5 205.5V200.5C112.478 200.5 96.5984 199.673 82.8411 198.035L82.25 203L81.6589 207.965C95.9016 209.66 112.189 210.5 130.5 210.5V205.5ZM82.25 203L82.8411 198.035C68.8657 196.371 59.0934 194.738 53.3045 193.173L52 198L50.6955 202.827C57.2399 204.596 67.6343 206.295 81.6589 207.965L82.25 203ZM52 198H57V193H52H47V198H52ZM52 193L56.9149 192.081L51.9149 165.331L47 166.25L42.0851 167.169L47.0851 193.919L52 193ZM47 166.25L43.2371 169.543C46.3003 173.043 51.5364 176.235 58.1547 179.29L60.25 174.75L62.3453 170.21C55.9636 167.265 52.3664 164.79 50.7629 162.957L47 166.25ZM60.25 174.75L58.1982 179.31C65.3445 182.525 74.5856 185.2 85.7837 187.406L86.75 182.5L87.7163 177.594C76.9144 175.467 68.4888 172.975 62.3018 170.19L60.25 174.75ZM86.75 182.5L85.8556 187.419C97.2337 189.488 110.632 190.5 126 190.5V185.5V180.5C111.035 180.5 98.2663 179.512 87.6444 177.581L86.75 182.5ZM126 185.5V190.5C139.787 190.5 150.635 189.586 158.267 187.587L157 182.75L155.733 177.913C149.365 179.581 139.546 180.5 126 180.5V185.5ZM157 182.75L158.344 187.566C165.834 185.476 171.993 182.427 175.5 177.75L171.5 174.75L167.5 171.75C166.007 173.74 162.5 176.024 155.656 177.934L157 182.75ZM171.5 174.75L175.477 177.78C178.823 173.388 180.5 168.318 180.5 162.75H175.5H170.5C170.5 166.182 169.51 169.112 167.523 171.72L171.5 174.75ZM175.5 162.75H180.5C180.5 155.809 177.562 150.064 171.95 145.963L169 150L166.05 154.037C169.105 156.269 170.5 159.024 170.5 162.75H175.5ZM169 150L171.95 145.963C166.792 142.194 159.499 139.505 150.535 137.608L149.5 142.5L148.465 147.392C156.834 149.162 162.541 151.473 166.05 154.037L169 150ZM149.5 142.5L150.645 137.633C141.899 135.575 131.115 133.798 118.338 132.285L117.75 137.25L117.162 142.215C129.718 143.702 140.101 145.425 148.355 147.367L149.5 142.5ZM117.75 137.25L118.401 132.293C102.072 130.148 89.1981 127.372 79.6518 124.031L78 128.75L76.3482 133.469C86.8019 137.128 100.428 140.018 117.099 142.207L117.75 137.25ZM78 128.75L79.7213 124.056C70.2644 120.588 63.9745 116.216 60.25 111.25L56.25 114.25L52.25 117.25C57.5255 124.284 65.7356 129.579 76.2787 133.444L78 128.75ZM56.25 114.25L60.25 111.25C56.5326 106.293 54.5 99.8306 54.5 91.5H49.5H44.5C44.5 101.503 46.9674 110.207 52.25 117.25L56.25 114.25ZM49.5 91.5H54.5C54.5 84.7407 56.4868 78.8033 60.487 73.5172L56.5 70.5L52.513 67.4828C47.1799 74.53 44.5 82.5926 44.5 91.5H49.5ZM56.5 70.5L60.4353 73.5844C64.5361 68.3523 70.8974 63.9798 79.9522 60.7013L78.25 56L76.5478 51.2987C66.2693 55.0202 58.1305 60.3144 52.5647 67.4156L56.5 70.5ZM78.25 56L80.0233 60.675C88.9295 57.2968 100.607 55.5 115.25 55.5V50.5V45.5C99.8935 45.5 86.9038 47.3699 76.4767 51.325L78.25 56ZM115.25 50.5V55.5C132.435 55.5 147.294 56.3269 159.856 57.9584L160.5 53L161.144 48.0416C148.039 46.3398 132.731 45.5 115.25 45.5V50.5ZM160.5 53L159.856 57.9584C172.677 59.6234 181.379 61.2474 186.259 62.7724L187.75 58L189.241 53.2276C183.455 51.4192 173.99 49.7099 161.144 48.0416L160.5 53ZM187.75 58H182.75V63H187.75H192.75V58H187.75ZM187.75 63L183.007 64.5811L190.507 87.0811L195.25 85.5L199.993 83.9189L192.493 61.4189L187.75 63ZM195.25 85.5L197.882 81.2487C193.851 78.7533 187.965 76.3554 180.516 73.9854L179 78.75L177.484 83.5146C184.702 85.8112 189.649 87.9134 192.618 89.7513L195.25 85.5ZM179 78.75L180.548 73.9956C173.038 71.5506 164.082 69.5809 153.73 68.0535L153 73L152.27 77.9464C162.252 79.4191 170.628 81.2827 177.452 83.5044L179 78.75ZM153 73L153.809 68.0659C143.326 66.3473 131.716 65.5 119 65.5V70.5V75.5C131.284 75.5 142.341 76.3194 152.191 77.9341L153 73ZM119 70.5V65.5C108.484 65.5 99.7863 66.2575 93.0682 67.8917L94.25 72.75L95.4318 77.6083C101.047 76.2425 108.85 75.5 119 75.5V70.5ZM94.25 72.75L93.0373 67.8993C86.5525 69.5205 81.1199 72.1204 77.513 76.1782L81.25 79.5L84.987 82.8218C86.7135 80.8796 89.9475 78.9795 95.4627 77.6007L94.25 72.75ZM81.25 79.5L77.5008 76.1919C74.1098 80.035 72.5 84.7499 72.5 90H77.5H82.5C82.5 86.9168 83.3902 84.6317 84.9992 82.8081L81.25 79.5ZM77.5 90H72.5C72.5 96.8882 75.0876 102.748 80.2991 107.091L83.5 103.25L86.7009 99.4089C83.9124 97.0851 82.5 94.1118 82.5 90H77.5ZM83.5 103.25L80.3765 107.154C85.344 111.128 92.1376 113.944 100.361 115.868L101.5 111L102.639 106.132C95.1958 104.389 89.9894 102.038 86.6235 99.3457L83.5 103.25ZM101.5 111L100.383 115.874C108.612 117.759 118.467 119.369 129.916 120.716L130.5 115.75L131.084 110.784C119.867 109.465 110.388 107.907 102.617 106.126L101.5 111ZM130.5 115.75L129.948 120.719C147.774 122.7 161.7 125.481 171.875 128.978L173.5 124.25L175.125 119.522C163.967 115.686 149.226 112.8 131.052 110.781L130.5 115.75ZM173.5 124.25L171.875 128.978C182.011 132.463 188.662 136.929 192.513 142.017L196.5 139L200.487 135.983C195.004 128.738 186.323 123.371 175.125 119.522L173.5 124.25ZM196.5 139L192.513 142.017C196.362 147.104 198.5 153.957 198.5 163H203.5H208.5C208.5 152.376 205.971 143.229 200.487 135.983L196.5 139ZM203.5 163H198.5C198.5 168.647 197.136 173.674 194.451 178.197L198.75 180.75L203.049 183.303C206.697 177.159 208.5 170.353 208.5 163H203.5ZM198.75 180.75L194.426 178.239C191.916 182.561 187.98 186.51 182.36 190.004L185 194.25L187.64 198.496C194.353 194.323 199.584 189.272 203.074 183.261L198.75 180.75ZM185 194.25L182.445 189.952C176.857 193.275 169.728 195.946 160.934 197.865L162 202.75L163.066 207.635C172.605 205.554 180.81 202.559 187.555 198.548L185 194.25ZM162 202.75L161.002 197.851C152.413 199.6 142.261 200.5 130.5 200.5V205.5V210.5C142.739 210.5 153.587 209.566 162.998 207.649L162 202.75Z" fill="black" mask="url(#path-2-outside-1_76_10)"/>
</g>
</g>
<defs>
<filter id="filter0_i_76_10" x="0" y="0" width="250" height="250" filterUnits="userSpaceOnUse" color-interpolation-filters="sRGB">
<feFlood flood-opacity="0" result="BackgroundImageFix"/>
<feBlend mode="normal" in="SourceGraphic" in2="BackgroundImageFix" result="shape"/>
<feColorMatrix in="SourceAlpha" type="matrix" values="0 0 0 0 0 0 0 0 0 0 0 0 0 0 0 0 0 0 127 0" result="hardAlpha"/>
<feOffset/>
<feGaussianBlur stdDeviation="20"/>
<feComposite in2="hardAlpha" operator="arithmetic" k2="-1" k3="1"/>
<feColorMatrix type="matrix" values="0 0 0 0 0 0 0 0 0 0 0 0 0 0 0 0 0 0 0.25 0"/>
<feBlend mode="normal" in2="shape" result="effect1_innerShadow_76_10"/>
</filter>
<filter id="filter1_d_76_10" x="34.7269" y="45.5" width="177.773" height="173" filterUnits="userSpaceOnUse" color-interpolation-filters="sRGB">
<feFlood flood-opacity="0" result="BackgroundImageFix"/>
<feColorMatrix in="SourceAlpha" type="matrix" values="0 0 0 0 0 0 0 0 0 0 0 0 0 0 0 0 0 0 127 0" result="hardAlpha"/>
<feOffset dy="4"/>
<feGaussianBlur stdDeviation="2"/>
<feComposite in2="hardAlpha" operator="out"/>
<feColorMatrix type="matrix" values="0 0 0 0 0 0 0 0 0 0 0 0 0 0 0 0 0 0 0.25 0"/>
<feBlend mode="normal" in2="BackgroundImageFix" result="effect1_dropShadow_76_10"/>
<feBlend mode="normal" in="SourceGraphic" in2="effect1_dropShadow_76_10" result="shape"/>
</filter>
</defs>
</svg>
